<?xml version="1.0" standalone="no"?>
<!DOCTYPE svg PUBLIC "-//W3C//DTD SVG 20010904//EN"
 "http://www.w3.org/TR/2001/REC-SVG-20010904/DTD/svg10.dtd">
<svg version="1.0" xmlns="http://www.w3.org/2000/svg"
 width="1280.000000pt" height="996.000000pt" viewBox="0 0 1280.000000 996.000000"
 preserveAspectRatio="xMidYMid meet">
<metadata>
Created by potrace 1.15, written by Peter Selinger 2001-2017
</metadata>
<g transform="translate(0.000000,996.000000) scale(0.100000,-0.100000)"
fill="#000000" stroke="none">
<path d="M5715 9925 c-95 -153 -169 -174 -306 -92 l-57 34 0 -79 c0 -102 -19
-136 -87 -161 -34 -12 -69 -16 -107 -13 -32 2 -58 2 -58 0 0 -3 10 -18 21 -33
12 -16 18 -34 15 -39 -9 -15 -87 -25 -124 -18 -40 9 -88 59 -121 124 l-28 55
-26 -45 c-14 -24 -46 -63 -71 -86 -41 -38 -51 -42 -96 -42 -49 0 -108 23 -167
66 l-23 16 0 -78 c0 -132 -44 -175 -181 -175 -64 0 -84 -9 -58 -25 18 -11 59
-107 59 -139 0 -47 -33 -89 -101 -131 -62 -39 -62 -39 -36 -48 15 -6 27 -13
27 -18 0 -4 -91 -8 -203 -8 l-203 0 -50 -57 c-27 -32 -100 -110 -162 -174 -93
-97 -120 -119 -157 -129 -98 -27 -165 7 -222 116 l-27 52 -39 -59 c-85 -129
-174 -143 -317 -47 l-25 17 0 -77 c-1 -131 -44 -173 -181 -174 l-75 0 18 -26
c63 -96 70 -161 23 -215 -16 -19 -50 -45 -75 -58 -25 -13 -45 -26 -45 -29 0
-3 22 -17 49 -33 71 -40 101 -79 101 -132 0 -42 -2 -45 -58 -79 -71 -43 -136
-109 -157 -158 -33 -80 -11 -222 60 -382 l25 -56 -36 0 c-21 0 -72 16 -118 37
-44 20 -101 38 -126 41 l-45 4 0 -83 c-1 -95 -19 -144 -60 -159 -17 -6 -25
-17 -25 -33 0 -38 26 -113 50 -147 21 -29 22 -35 10 -71 -12 -36 -11 -41 16
-86 39 -62 78 -77 172 -63 106 15 118 13 161 -26 39 -34 81 -105 81 -135 0 -9
-51 -40 -129 -79 l-129 -63 -27 19 c-94 66 -97 66 -185 21 l-65 -33 1 -47 0
-47 -45 0 c-28 0 -59 8 -79 20 -39 24 -71 88 -72 142 0 20 -4 39 -8 42 -12 7
-169 -112 -265 -203 -48 -45 -99 -86 -114 -92 -16 -6 -80 -21 -144 -34 -63
-12 -134 -32 -156 -43 -72 -37 -203 -222 -203 -288 0 -12 14 -48 30 -79 36
-69 37 -90 6 -111 -25 -16 -52 -23 -226 -64 -94 -22 -220 -72 -220 -87 0 -4 7
-26 16 -50 34 -90 -13 -164 -138 -217 l-65 -28 -6 -176 c-9 -254 -35 -353
-110 -419 -18 -16 -55 -35 -81 -43 l-47 -13 42 -43 c60 -61 91 -69 185 -48
102 22 174 15 265 -27 85 -39 95 -57 79 -136 -23 -107 -97 -153 -248 -153 -40
0 -72 -3 -70 -7 74 -145 75 -226 2 -325 -18 -26 -80 -83 -136 -125 -129 -98
-195 -161 -203 -196 -12 -45 2 -87 66 -200 93 -164 90 -215 -16 -267 l-40 -19
33 -1 c58 0 108 -35 167 -115 53 -71 103 -125 116 -125 14 0 50 138 65 252 23
179 42 260 74 325 33 66 99 152 117 153 7 0 24 -10 39 -23 33 -29 34 -57 4
-146 -35 -103 -17 -136 79 -148 44 -5 49 -3 74 26 37 45 43 91 24 192 -25 130
-23 175 11 209 30 30 86 50 140 50 l32 0 0 -159 c0 -184 -14 -165 128 -181
137 -17 256 5 361 67 24 14 114 93 199 175 98 95 158 146 164 140 5 -5 12 -27
15 -48 4 -31 -2 -52 -31 -108 l-36 -69 35 6 c62 10 146 -9 177 -40 31 -32 54
-123 43 -174 -4 -16 -5 -29 -2 -29 3 0 30 16 62 35 32 19 77 37 102 41 37 5
50 2 90 -22 25 -16 62 -51 80 -79 19 -27 38 -51 42 -53 4 -1 15 13 24 32 25
54 85 115 123 125 38 11 118 -5 172 -33 l32 -17 0 58 c0 106 43 156 150 175
36 6 66 12 67 13 1 1 -7 20 -18 43 -31 62 -28 105 13 150 18 21 51 60 73 87
128 159 222 232 338 262 l65 17 -20 56 c-30 80 -72 136 -126 167 -43 26 -56
28 -148 28 -101 0 -102 0 -75 18 42 28 129 50 173 43 105 -17 213 -113 311
-279 75 -126 112 -205 252 -547 115 -280 185 -433 208 -457 7 -6 84 -42 172
-78 457 -190 851 -427 1171 -706 411 -357 654 -821 654 -1249 0 -142 -18 -207
-105 -390 -109 -231 -145 -366 -161 -612 l-6 -108 615 0 614 0 7 48 c7 57 -6
278 -34 542 -34 325 -42 509 -31 672 24 328 102 578 255 812 l55 85 -24 83
c-51 179 -73 356 -55 462 11 69 46 152 74 175 22 19 100 0 293 -69 208 -76
288 -92 428 -89 69 2 124 -2 147 -10 73 -24 96 10 105 158 l6 93 33 14 c18 8
45 14 60 14 22 0 25 -2 14 -15 -11 -13 -3 -15 61 -15 131 0 181 -49 183 -177
1 -34 2 -63 3 -63 1 0 31 15 65 34 61 34 84 39 141 37 33 -1 114 -73 143 -126
22 -41 30 -44 38 -12 9 36 63 105 99 127 44 28 110 26 175 -5 30 -14 56 -25
58 -25 2 0 4 25 4 56 0 107 51 161 160 171 33 3 60 8 60 10 0 2 -9 22 -21 45
-43 84 -17 177 65 228 l36 22 -60 57 c-58 55 -60 58 -60 107 0 35 8 66 25 98
l24 46 -32 0 c-51 0 -131 27 -155 53 -25 27 -43 105 -34 156 5 31 3 34 -14 26
-182 -76 -241 -62 -310 70 -16 30 -32 55 -35 55 -3 0 -15 -17 -27 -38 -11 -21
-30 -46 -41 -56 -20 -18 -22 -17 -110 64 -129 119 -213 177 -288 200 -77 24
-120 25 -192 6 l-54 -14 6 117 c13 284 115 450 315 511 79 25 127 25 171 2 81
-41 112 -118 131 -327 6 -66 16 -143 22 -172 10 -49 13 -52 67 -80 49 -24 67
-28 141 -28 76 0 100 5 221 48 197 69 276 62 367 -32 l39 -40 205 128 c221
137 252 159 341 235 62 54 141 163 173 239 19 47 19 47 67 47 59 0 105 -22
113 -55 9 -36 -9 -79 -86 -205 -38 -63 -70 -122 -70 -132 0 -11 16 -22 50 -33
56 -19 65 -30 75 -98 16 -103 79 -144 267 -172 56 -9 116 -24 133 -33 29 -18
30 -20 30 -98 0 -87 10 -112 69 -167 65 -62 206 -103 252 -75 12 7 37 25 56
40 l34 27 71 -24 c83 -29 200 -55 249 -55 l34 0 0 -50 c0 -47 11 -63 25 -40 9
15 94 56 132 65 65 14 140 -36 199 -131 13 -22 24 -34 24 -28 0 26 81 134 111
150 46 23 111 19 176 -11 31 -14 57 -25 58 -25 2 0 5 34 7 76 3 72 5 78 39
109 34 31 104 55 159 55 19 0 19 1 -1 40 -47 90 -35 147 47 219 l46 41 -51 46
c-66 60 -80 101 -56 173 9 28 21 53 26 56 20 13 7 23 -38 30 -68 10 -128 38
-150 71 -13 21 -18 47 -18 99 l0 72 -54 -25 c-66 -30 -131 -39 -171 -22 -39
16 -87 71 -111 128 l-19 45 -39 -61 c-22 -33 -44 -62 -49 -66 -6 -4 -30 31
-56 81 -88 168 -177 265 -278 301 -45 16 -48 19 -48 52 0 95 58 180 121 180
19 0 54 -11 78 -25 23 -14 44 -25 46 -25 1 0 -2 23 -7 51 -20 109 -66 182
-226 360 -117 131 -147 189 -147 284 1 52 7 86 26 131 l25 60 -38 28 c-20 15
-53 46 -72 69 -46 57 -138 211 -127 215 4 1 -3 24 -16 49 -44 87 -22 167 61
224 20 13 36 26 36 29 0 3 -16 16 -35 30 -84 61 -104 134 -62 218 l26 51 -37
6 c-81 13 -122 28 -149 57 -25 26 -28 38 -31 107 l-4 78 -36 -18 c-58 -28
-124 -43 -163 -35 -45 8 -93 55 -128 124 l-28 55 -25 -44 c-30 -51 -94 -114
-124 -123 -40 -12 -249 162 -274 230 -17 44 -11 101 15 150 79 148 -29 234
-386 309 -101 21 -149 38 -264 92 -242 115 -294 102 -330 -82 -17 -92 -54
-149 -127 -198 -103 -68 -228 -88 -282 -46 -14 11 -26 28 -26 37 0 9 -62 78
-139 152 -171 167 -181 187 -189 383 -3 97 -8 130 -19 134 -25 10 -157 -16
-273 -52 -122 -38 -225 -52 -312 -41 l-56 7 -6 47 c-9 64 -30 126 -87 263 -27
64 -54 148 -61 188 -11 66 -14 72 -33 66 -114 -37 -203 -37 -277 1 -18 9 -88
70 -154 135 -67 66 -125 119 -129 119 -4 0 -34 -20 -68 -45 -84 -64 -93 -59
-89 41 l4 81 -59 16 c-96 27 -217 37 -434 37 l-207 0 -43 33 c-48 37 -79 88
-79 133 0 17 11 53 25 80 14 27 25 49 25 50 0 1 -23 4 -51 7 -122 15 -173 69
-167 178 1 32 0 59 -4 59 -3 0 -30 -11 -60 -25 -66 -31 -139 -33 -185 -5 -18
10 -46 43 -62 72 -51 89 -46 86 -66 53z m452 -2148 c10 -11 23 -83 22 -132 0
-73 -24 -115 -82 -144 -41 -20 -67 -24 -185 -29 -76 -2 -143 -9 -151 -15 -10
-9 -20 -4 -42 21 -33 37 -39 94 -14 141 32 62 137 132 240 158 46 12 200 12
212 0z m2213 -192 c14 -7 36 -25 49 -39 19 -20 23 -33 19 -64 -6 -39 -53 -122
-70 -122 -5 0 -30 -16 -55 -35 -76 -58 -92 -48 -95 61 -1 53 3 66 40 129 23
38 42 75 42 83 0 14 24 10 70 -13z m-373 -1925 c53 -7 101 -22 150 -46 l73
-35 -20 -39 c-50 -97 -157 -162 -322 -195 l-68 -13 0 164 0 163 43 4 c23 2 47
4 54 5 6 1 47 -3 90 -8z m-880 -99 c69 -35 103 -88 103 -159 0 -42 -28 -110
-54 -131 -13 -11 -14 -16 -4 -22 18 -12 96 -11 118 1 32 17 42 80 34 209 l-6
116 28 -27 c28 -26 122 -78 142 -78 25 0 226 -72 260 -94 89 -56 138 -151 149
-287 l6 -77 -54 -28 c-138 -69 -306 -106 -484 -107 -170 0 -316 31 -482 103
l-53 22 41 47 c90 101 103 168 70 361 -12 69 -23 135 -26 147 -4 17 0 23 22
26 53 9 152 -2 190 -22z m-5810 -65 c2 -2 8 -31 14 -65 10 -53 9 -65 -6 -87
-17 -26 -20 -26 -86 -21 -38 3 -73 8 -78 11 -5 3 -12 35 -16 72 -6 56 -4 68
12 86 16 18 26 20 87 14 39 -4 71 -8 73 -10z m702 -53 c17 -26 36 -64 43 -84
20 -70 -14 -129 -77 -129 -29 0 -37 5 -51 32 -11 21 -14 44 -11 73 7 51 45
155 57 155 4 0 22 -21 39 -47z m4728 28 c41 -19 73 -61 73 -96 0 -33 -33 -86
-63 -101 -28 -15 -32 -15 -56 3 -32 24 -39 49 -40 141 -1 68 0 72 22 72 12 0
41 -9 64 -19z m3889 9 c5 -5 54 -28 108 -50 158 -64 196 -104 196 -209 l0 -50
-32 19 c-18 10 -71 33 -116 50 -132 50 -182 107 -182 205 0 45 7 54 26 35z
m-6868 -87 c-52 -59 -66 -156 -31 -215 10 -18 38 -46 62 -63 40 -28 48 -30
137 -30 52 0 94 -1 94 -3 0 -13 -38 -54 -73 -80 -69 -49 -154 -72 -288 -79
-105 -5 -119 -4 -125 11 -3 9 -7 87 -8 174 -1 150 0 159 24 200 36 63 101 99
184 101 36 1 38 0 24 -16z m1328 -80 c-15 -38 -52 -82 -89 -107 -41 -26 -115
-43 -142 -32 -20 7 -20 58 0 96 19 37 83 58 174 59 56 1 62 -1 57 -16z m-726
-53 c58 -31 72 -193 24 -267 -26 -41 -49 -46 -83 -18 -47 40 -56 82 -41 187
11 75 17 91 34 98 29 12 44 12 66 0z m4185 -92 c16 -16 17 -126 1 -180 -31
-107 -146 -201 -264 -215 -88 -10 -162 22 -207 91 -22 32 -35 117 -28 175 6
49 7 51 38 51 31 0 59 9 210 65 59 21 84 25 157 23 47 -2 89 -6 93 -10z
m-3757 -94 c154 -52 214 -56 269 -16 17 12 33 22 36 22 3 0 8 -30 12 -66 6
-63 5 -67 -20 -94 -90 -94 -326 -121 -474 -55 -82 37 -113 72 -119 134 -4 47
-2 53 31 86 49 49 91 47 265 -11z m-1310 -140 l52 -7 0 -42 c0 -39 -5 -47 -51
-89 -30 -27 -61 -46 -75 -46 -28 0 -60 32 -74 76 -17 52 -9 77 30 96 39 20 43
20 118 12z m4427 -38 c91 -42 160 -143 206 -297 l22 -75 -56 -70 c-65 -81 -82
-92 -143 -101 l-46 -6 7 44 c15 86 9 175 -15 217 -41 73 -134 104 -255 84 -34
-6 -64 -6 -69 -1 -5 4 -11 32 -14 62 -6 71 4 77 129 86 90 6 103 9 120 30 10
13 19 29 19 37 0 21 38 17 95 -10z m-4003 -42 c44 -8 49 -19 49 -102 1 -73
-15 -106 -91 -192 -78 -89 -92 -119 -91 -197 0 -35 4 -69 8 -76 4 -7 -11 2
-32 19 -22 18 -85 60 -140 94 -121 75 -180 129 -211 195 -35 73 -32 81 23 90
58 9 100 29 180 89 107 81 181 100 305 80z m3043 -18 c28 -8 88 -26 135 -41
47 -14 122 -29 168 -32 57 -4 90 -12 105 -23 l21 -17 -26 -17 c-17 -11 -57
-19 -115 -23 l-89 -6 -72 -102 c-82 -117 -111 -175 -145 -295 l-25 -85 -118 0
c-145 0 -202 17 -272 80 -55 49 -87 113 -97 192 l-7 50 56 5 c100 8 137 56
171 223 l21 100 40 7 c56 9 190 1 249 -16z m-6135 -9 c0 -26 -60 -97 -98 -116
-22 -11 -63 -23 -91 -27 l-53 -7 20 39 c38 75 110 123 185 124 25 0 37 -4 37
-13z m457 -257 c46 -20 79 -64 89 -117 6 -30 -12 -138 -37 -227 l-11 -39 -97
5 c-79 4 -107 10 -142 29 -56 31 -89 91 -89 165 l0 53 33 -6 c68 -11 127 48
127 125 0 16 3 32 7 35 9 10 71 -2 120 -23z m4643 6 c0 -57 -129 -428 -160
-459 -14 -15 -67 21 -80 53 -10 24 -11 60 -4 153 4 67 8 157 9 200 l0 77 117
0 c117 0 118 0 118 -24z m307 -165 c-19 -23 -27 -50 -37 -118 -21 -160 -39
-188 -120 -188 -27 0 -52 4 -57 8 -15 15 -7 163 11 210 29 75 92 116 184 117
l44 0 -25 -29z m-2141 -4 c48 -42 38 -79 -65 -237 -32 -48 -61 -100 -65 -114
-6 -26 -7 -26 -36 -11 -74 38 -79 115 -14 208 81 115 129 176 141 176 7 1 24
-10 39 -22z m-2763 -305 c51 -56 22 -116 -70 -152 -120 -45 -114 -40 -61 -64
l47 -21 -27 -31 c-55 -65 -94 -62 -112 7 -22 82 28 219 93 260 41 25 108 25
130 1z m2947 -78 c36 -8 119 -32 185 -54 204 -65 287 -63 361 9 25 24 35 29
29 16 -4 -11 -9 -51 -12 -90 -8 -129 32 -165 240 -214 138 -33 187 -53 187
-77 0 -47 -105 -208 -187 -285 -110 -105 -222 -144 -389 -137 -170 8 -330 78
-489 215 -131 112 -247 269 -306 411 l-22 52 41 54 c80 105 199 139 362 100z
m2211 -32 c25 -17 58 -34 72 -38 20 -4 27 -13 27 -30 0 -81 -167 -98 -242 -24
-31 31 -34 50 -17 100 12 32 13 32 63 28 37 -3 65 -13 97 -36z m-231 -76 c0
-45 -37 -97 -85 -121 -22 -10 -94 -29 -159 -42 -137 -26 -200 -53 -226 -96
l-19 -31 50 -58 c60 -68 162 -147 238 -183 126 -60 303 -72 499 -32 97 20 112
21 107 7 -20 -51 -35 -134 -35 -195 0 -123 28 -216 151 -502 115 -266 143
-385 120 -508 -20 -109 -88 -213 -190 -295 l-39 -30 -56 20 c-166 57 -306 179
-438 380 -41 63 -109 167 -150 230 -196 299 -365 411 -645 427 -57 3 -103 9
-103 13 0 4 27 89 60 190 72 221 163 413 249 528 151 199 371 310 654 331 13
1 17 -7 17 -33z"/>
</g>
</svg>
