<svg id="Layer_1" data-name="Layer 1" xmlns="http://www.w3.org/2000/svg" viewBox="0 0 1124.75 1107.31"><defs><style>.cls-1{fill:#85c342;}.cls-2{fill:#a4d271;}.cls-3{fill:#e1f0d0;}.cls-4{fill:#c3e1a2;}.cls-5{fill:#07070a;}.cls-6{fill:#d8ebc3;}</style></defs><title>16</title><path class="cls-1" d="M2514.11-115.33c1.51-2,0-3.87-.52-5.66-7.1-24.89-11.88-50.19-10.54-76.14,2.31-44.73,10.65-88.07,34-127.14,16.15-27,38.6-46.23,69.84-54,5.55-1.37,11.38-1.3,16.74-3.49h5a50.45,50.45,0,0,0,16,0h4c16.07.84,31.45,4.85,46.28,10.82,34.73,13.95,61.92,37.14,82.49,68.23,3.19,4.83,7,8.82,12.18,11.48a11.26,11.26,0,0,0,11.4-.17c6.4-3.59,11.2-8.9,15.31-14.77a193.8,193.8,0,0,1,40.56-42.34c21-16.22,44.5-27.11,70.72-31.84,4.55-.82,9.22-.41,13.74-1.41h1c2.1,1,4.35.27,6.51.52,4.82-.31,9.68.62,14.47-.52h4c10.61.84,20.92,2.78,30.85,6.91,20.34,8.47,36.65,21.95,50.09,39.17,22.49,28.81,34.47,62,40.08,97.66,5,31.62,2.35,63-5,94-1.8,7.6-3.73,15.18-6.13,22.62-.74,2.3-1.09,5-3.87,6.05-14.76-.83-29.49-2.09-44.27-2.68-17.63-.7-35.26-.86-52.86,0a245.17,245.17,0,0,0-34.63,4.35,226.11,226.11,0,0,0-38.67,11.58,25.16,25.16,0,0,1-9.27,1.58q-96.09,0-192.18,0a28.77,28.77,0,0,1-10.66-2.11,233.39,233.39,0,0,0-66.93-15c-17.3-1.35-34.61-1.15-51.86-.63-16.92.5-33.9,1-50.71,3.49C2518.93-114.45,2516.36-113.46,2514.11-115.33Z" transform="translate(-2234.11 381.75)"/><path class="cls-2" d="M2644.64-381.75a26.75,26.75,0,0,1-16,0Z" transform="translate(-2234.11 381.75)"/><path class="cls-2" d="M2963.29-381.75c-4.92,2.18-10.06.54-15.08.87-.25-.22-.32-.43-.21-.61s.21-.26.31-.26Z" transform="translate(-2234.11 381.75)"/><path class="cls-3" d="M3358,182.58a4.1,4.1,0,0,1,.86,0v8l-.42.06H3358C3355.82,188,3355.84,185.28,3358,182.58Z" transform="translate(-2234.11 381.75)"/><path class="cls-4" d="M2948.31-381.75c0,.29-.06.58-.1.87-2-.2-4.18,1.09-5.9-.87Z" transform="translate(-2234.11 381.75)"/><path class="cls-1" d="M3358,182.58l0,8.09c-1.91,24.42-12.34,45.37-26.94,64.39-22.82,29.74-51.57,51.15-88.23,60.91-7.37,2-15,3-22,6.2-1.66.75-3.35,1.45-5,2.31-10.12,5.4-11.77,9.61-7.65,20.17a87.51,87.51,0,0,0,10.17,18.25c20,28.7,31.51,60.25,28.41,95.52-4.26,48.45-24.43,87.73-69.18,111.2-17.48,9.17-36.46,13.28-56.06,14.54-56.64,3.64-107-14.43-153.66-44.9-43.1-28.15-78.7-64.3-110.31-104.61a658.36,658.36,0,0,1-40.51-58.09c-.57-.91-.81-2.18-2.43-2.58-1.11,10.43-1,20.83-1.48,31.2-1.05,22.45-.5,44.91-.67,67.37-.32,41.31,7.24,81.18,20.17,120.34,9.42,28.53,17.9,57.38,26.09,86.31,3.73,13.18-.92,22.84-9.83,31.29-12.19,11.55-27.55,14.84-43.72,15.07-6.42.09-10.14-4.52-13.15-9.46-7.1-11.67-10.51-24.73-13.51-37.86-6.42-28.08-9.7-56.62-12.23-85.29-2.87-32.32-4.26-64.71-4.34-97.13-.11-38.25.68-76.49,7.67-114.28.23-.53.42-1.19,0-1.56s-.62.38-1,.56c-25.25,42.2-55.18,80.73-90.85,114.62-38.2,36.29-80.83,65.58-132.12,80.31-35,10.06-70.63,13.59-106.27,3.71-51.49-14.27-82.25-48.74-92.26-100.7-8.91-46.32,2.8-88.3,31.63-125.55a42.5,42.5,0,0,0,3.13-4.5c6.05-10.42,4.44-17.22-5.73-23.45a44.89,44.89,0,0,0-13.71-5.71c-34.8-7.85-65.9-22.77-90.92-48.82-19.86-20.7-31.27-45.55-35.55-73.81-3.23-21.37-3-42.41,5.46-62.76,8.59-20.6,22.34-37.27,39.33-51.39,24.09-20,51.53-33.92,81.2-43.62,1.19,1.17,1.13,2.7,1.22,4.19.7,11.94.85,23.91,2,35.82,2.93,29.25,9.35,57.51,24.69,83,17.44,29,43.08,47,75.64,55.48a204,204,0,0,0,40.88,6,244.83,244.83,0,0,0,96.58-13.87,200.51,200.51,0,0,0,63-36.75c34.71-29.69,57.27-67.48,73.31-109.6a328,328,0,0,0,19-74.31c.63-4.87,2.85-7.64,7.53-9.32,21.52-7.74,42.84-8.75,64.19.6,3.83,1.68,5.57,4.09,6.13,8.14a350.4,350.4,0,0,0,22,82.26c14.87,37.3,35.73,70.67,65.49,97.93,32.55,29.82,71.34,46.42,114.8,52.78a253.79,253.79,0,0,0,35.27,2.75c28,.17,55.53-3.52,81.07-15.94,23.46-11.41,41.18-29.08,53.45-52.08,11.52-21.6,17.15-44.94,20.46-69,1.86-13.55,1.22-27.22,2.85-40.76.21-1.79-.16-3.7,1.25-5.2,35.71,12.52,67.52,31,91.61,60.92C3343.5,125.49,3354.41,152.54,3358,182.58Z" transform="translate(-2234.11 381.75)"/><path class="cls-5" d="M3232.89,41c-.92,17.92-1,35.88-3.89,53.66-4.22,26.37-11.61,51.57-26.79,73.92-18.78,27.67-45.05,45-77.51,51.17-70.07,13.38-135.45,2.58-192.66-42.56-32.31-25.49-54.5-58.9-70.85-96.31-13.19-30.16-22.34-61.51-26.33-94.25-.32-2.6-1.53-3.68-3.66-4.65-22.79-10.37-45.5-9-68.25.19-2.57,1-2.63,2.85-2.94,5.07-7.05,50.08-23,97-51.26,139.17-36.94,55.24-88.4,87.61-154.46,96.3-29.24,3.85-58.41,3.82-87.17-3.46-45.55-11.51-75.48-40.19-91.2-84.12-8.83-24.67-12.42-50.26-13.16-76.34-.18-6.63-.48-13.27-.73-19.91,1.44-10.53,1.06-21.18,2.62-31.74,7.37-49.82,34.84-83.95,80.4-104.13,22-9.76,45.25-15.16,69-18.33,20.58-3.11,41.33-4,62.08-4.44,27.78-.54,55.57-.71,82.89,5.73a205.45,205.45,0,0,1,33.24,10.45,21.46,21.46,0,0,0,8.68,1.72q96.6-.06,193.2,0a17.93,17.93,0,0,0,7.29-1.24c26.07-11,53.45-16,81.58-16.65,30.43-.67,60.85,0,91.15,3.4,26.89,3.59,53.31,9,78.12,20.49,47.51,21.94,73.61,59.06,78.92,111.09C3232.13,23.8,3231.28,32.47,3232.89,41Z" transform="translate(-2234.11 381.75)"/><path class="cls-6" d="M2768.69,380.54a3.16,3.16,0,0,1,1.42-2.32,2.5,2.5,0,0,1-.46,3.32Z" transform="translate(-2234.11 381.75)"/><path class="cls-5" d="M2779.39,313.7c-48-1.37-90.6-26.89-118-77.43-3.34-6.18-2.28-12.53,2.15-17a14.09,14.09,0,0,1,15.64-3c3.75,1.57,5.87,4.56,7.78,8,17.09,31.14,42.32,52.15,77.58,58.81,51.44,9.71,108.52-10.24,141.23-57.46,4.42-6.39,9.86-9,15.94-7.57,10.12,2.43,14.19,13.33,8.15,22.5A157.82,157.82,0,0,1,2884,285.78C2855.71,304.34,2824.44,313.46,2779.39,313.7Z" transform="translate(-2234.11 381.75)"/><path class="cls-1" d="M2722.8-87.14h149.08c-3,2.48-5.19,4.36-7.43,6.21-14.5,11.94-23.94,27-27.88,45.41-.59,2.73-1.09,3.66-4.13,2.47-22.82-9-45.78-8.43-68.66-.25-3.78,1.35-4.85.84-5.73-3.22-4.25-19.51-15.12-34.84-30.72-47C2726.16-84.44,2725-85.37,2722.8-87.14Z" transform="translate(-2234.11 381.75)"/></svg>